<svg width="21" height="22" viewBox="0 0 21 22" fill="none" xmlns="http://www.w3.org/2000/svg">
<path d="M5.92292 3.8077V0.846177C5.92292 0.380776 5.54214 0 5.07681 0C4.61147 0 4.23063 0.380776 4.23063 0.846177V3.8077C4.23063 4.2731 4.61141 4.65387 5.07681 4.65387C5.54221 4.65387 5.92292 4.2731 5.92292 3.8077Z" fill="#FBCB0C"/>
<path d="M16.077 3.8077V0.846177C16.077 0.380776 15.6963 0 15.2309 0C14.7655 0 14.3847 0.380776 14.3847 0.846177V3.8077C14.3847 4.2731 14.7655 4.65387 15.2309 4.65387C15.6963 4.65387 16.077 4.2731 16.077 3.8077Z" fill="#FBCB0C"/>
<path d="M20.3076 19.817V8.8847H0V19.817C0 21.0228 0.977308 22.0001 2.18305 22.0001H18.1246C19.3303 22.0001 20.3076 21.0228 20.3076 19.817Z" fill="#FBCB0C"/>
<path d="M13.5384 3.80829V2.53906H6.76922V3.80829C6.76922 4.74332 6.01189 5.50058 5.07693 5.50058C4.14197 5.50058 3.38457 4.74326 3.38457 3.80829V2.53906H2.18305C0.977308 2.53906 0 3.51637 0 4.72212V8.03905H20.3077V4.72212C20.3077 3.51637 19.3304 2.53906 18.1247 2.53906H16.9231V3.80829C16.9231 4.74332 16.1658 5.50058 15.2309 5.50058C14.2959 5.50058 13.5384 4.74326 13.5384 3.80829Z" fill="#FBCB0C"/>
</svg>
