<svg width="24" height="18" viewBox="0 0 24 18" fill="none" xmlns="http://www.w3.org/2000/svg">
<path d="M18.947 0H7.32684C4.53782 0 2.26911 2.07653 2.26911 4.63586V12.7826L0.159773 15.8904C-0.12616 16.3122 -0.0183491 16.8888 0.403519 17.1747C0.558204 17.2778 0.736326 17.3341 0.923822 17.3341H18.9423C21.7313 17.3341 24 15.2529 24 12.6982V4.63586C24.0047 2.08121 21.736 0 18.947 0ZM14.2548 12.1732H7.91277C7.40184 12.1732 6.98935 11.7607 6.98935 11.2498C6.98935 10.7389 7.40184 10.3264 7.91277 10.3264H14.2548C14.7658 10.3264 15.1783 10.7389 15.1783 11.2498C15.1783 11.7607 14.7658 12.1732 14.2548 12.1732ZM18.4126 7.00769H7.91277C7.40184 7.00769 6.98935 6.5952 6.98935 6.08427C6.98935 5.57334 7.40184 5.16085 7.91277 5.16085H18.4126C18.9235 5.16085 19.336 5.57334 19.336 6.08427C19.336 6.5952 18.9235 7.00769 18.4126 7.00769Z" fill="#FBCB0C"/>
</svg>
