<svg width="22" height="24" viewBox="0 0 22 24" fill="none" xmlns="http://www.w3.org/2000/svg">
<path d="M20.7503 13.2349C19.9332 12.4178 18.614 12.4178 17.7969 13.2349L16.8181 14.2137L19.7715 17.1671L20.7503 16.1883C21.5674 15.3712 21.5674 14.052 20.7503 13.2349Z" fill="#7D4CDB"/>
<path d="M15.9159 15.1159L10.7582 20.2736C10.6475 20.3843 10.5794 20.529 10.5539 20.6822L10.1624 22.9632C10.0773 23.4653 10.5199 23.9079 11.022 23.8228L13.303 23.4313C13.4562 23.4058 13.6009 23.3377 13.7116 23.227L18.8693 18.0693L15.9159 15.1159Z" fill="#7D4CDB"/>
<path d="M19.7718 18.9727L14.9128 23.8309H18.5292C19.6059 23.8309 20.4783 22.9585 20.4783 21.8818V18.2654L19.7718 18.9727Z" fill="#7D4CDB"/>
<path d="M18.5289 3.05176e-05H1.9491C0.877548 3.05176e-05 4.57764e-05 0.877533 4.57764e-05 1.94909V21.8823C4.57764e-05 22.9538 0.877548 23.8313 1.9491 23.8313H9.0304C8.89337 23.4909 8.8406 23.1198 8.90359 22.7495L9.2951 20.466C9.36404 20.0498 9.55724 19.6694 9.85343 19.3723L15.9159 13.3098L16.8939 12.3319C17.5305 11.6952 18.3757 11.3446 19.2736 11.3446C19.6932 11.3446 20.0983 11.428 20.4779 11.5744V1.94909C20.4779 0.877533 19.6004 3.05176e-05 18.5289 3.05176e-05ZM10.2815 14.0656H4.70332C4.28032 14.0656 3.93732 13.7226 3.93732 13.2996C3.93732 12.8766 4.28032 12.5336 4.70332 12.5336H10.2815C10.7046 12.5336 11.0476 12.8766 11.0476 13.2996C11.0476 13.7226 10.7046 14.0656 10.2815 14.0656ZM15.7772 9.74618H4.70332C4.28032 9.74618 3.93732 9.40318 3.93732 8.98017C3.93732 8.55717 4.28032 8.21417 4.70332 8.21417H15.7781C16.2011 8.21417 16.5441 8.55717 16.5441 8.98017C16.5441 9.40318 16.2002 9.74618 15.7772 9.74618ZM15.7772 5.42676H4.70332C4.28032 5.42676 3.93732 5.08376 3.93732 4.66075C3.93732 4.23774 4.28032 3.89474 4.70332 3.89474H15.7781C16.2011 3.89474 16.5441 4.23774 16.5441 4.66075C16.5441 5.08376 16.2002 5.42676 15.7772 5.42676Z" fill="#7D4CDB"/>
</svg>
