<svg width="22" height="22" viewBox="0 0 22 22" fill="none" xmlns="http://www.w3.org/2000/svg">
<path d="M21.5531 15.125L19.7313 13.475C19.4219 13.2 19.25 12.8219 19.25 12.4438V8.25C19.25 3.67812 15.5719 0 11 0C6.42812 0 2.75 3.67812 2.75 8.25V12.4438C2.75 12.8562 2.57812 13.2344 2.26875 13.475L0.446875 15.125C0.171875 15.4 0 15.7437 0 16.1562V17.875C0 18.6313 0.61875 19.25 1.375 19.25H7.11563C7.66563 20.8656 9.2125 22 11 22C12.7875 22 14.3344 20.8656 14.8844 19.25H20.625C21.3813 19.25 22 18.6313 22 17.875V16.1562C22 15.7781 21.8281 15.4 21.5531 15.125Z" fill="#FBCB0C"/>
</svg>
