<svg width="24" height="22" viewBox="0 0 24 22" fill="none" xmlns="http://www.w3.org/2000/svg">
<path d="M20.1025 13.0589V14.6689C20.1025 14.9118 19.8902 15.1001 19.6508 15.0679C14.7202 14.4045 9.54999 14.366 4.35281 15.0609C4.11234 15.0931 3.89839 14.9062 3.89839 14.6622V13.0589C3.89839 12.2384 4.50905 11.5502 5.31875 11.4591C9.58039 10.9781 14.0716 10.9392 18.6772 11.4586C19.4899 11.5502 20.1025 12.2379 20.1025 13.0589ZM21.2668 13.5589C21.1047 13.6531 20.902 13.5347 20.9025 13.3463C20.9032 13.0436 20.9048 12.9711 20.8932 12.8461C20.7947 11.7106 19.913 10.788 18.7662 10.6587C14.4328 10.1696 9.88457 10.1343 5.22973 10.6592C4.08494 10.788 3.20571 11.7106 3.10769 12.8461C3.09613 12.9714 3.09778 13.0397 3.09848 13.3464C3.09888 13.5347 2.89628 13.6531 2.73409 13.5589C-0.958555 11.4149 -0.883886 6.06127 2.79511 3.98846L8.01544 1.04598C10.4874 -0.347278 13.5086 -0.350045 15.9855 1.04598L21.2058 3.98846C24.8945 6.06676 24.9475 11.4219 21.2668 13.5589ZM17.6519 5.04039C17.6519 4.81803 17.4729 4.63793 17.2518 4.63793H13.5399C12.6196 3.97463 11.3807 3.97513 10.4611 4.63793H6.74912C6.52806 4.63793 6.34902 4.81803 6.34902 5.04039V5.5998C6.34902 6.34938 6.86115 6.98124 7.55233 7.15933C7.55233 8.26479 8.35543 8.86978 9.15274 8.86978H10.323C11.2978 9.6744 12.7017 9.6755 13.6779 8.86978H14.8482C15.656 8.86978 16.4486 8.25603 16.4486 7.15933C17.1393 6.98124 17.6519 6.34938 17.6519 5.5998V5.04039ZM9.4018 7.33511C9.38715 7.26211 9.32338 7.20969 9.24931 7.20969H8.51747C8.15958 7.20969 8.46471 8.06492 9.15274 8.06492H9.4161C9.52838 8.06492 9.6029 7.94971 9.55904 7.84578C9.49047 7.68308 9.43736 7.51219 9.4018 7.33511ZM9.46171 5.44285H7.30526C6.94667 5.44285 7.20644 6.40472 7.94943 6.40472H9.24936C9.45956 6.40472 9.35054 6.2041 9.60475 5.66656C9.65386 5.56268 9.57609 5.44285 9.46171 5.44285ZM12.0005 4.94581C10.9802 4.94581 10.15 5.78091 10.15 6.80718C10.15 7.83345 10.9802 8.66855 12.0005 8.66855C13.0207 8.66855 13.8509 7.83345 13.8509 6.80718C13.8509 5.78091 13.0207 4.94581 12.0005 4.94581ZM16.6957 5.44285H14.5392C14.4248 5.44285 14.3471 5.56268 14.3962 5.66656C14.6508 6.2051 14.5409 6.40472 14.7516 6.40472H16.0515C16.7961 6.40472 17.0535 5.44285 16.6957 5.44285ZM14.7516 7.20964C14.6775 7.20964 14.6137 7.26206 14.5991 7.33506C14.5636 7.51219 14.5104 7.68303 14.4418 7.84573C14.398 7.94966 14.4725 8.06487 14.5848 8.06487H14.8481C15.5374 8.06487 15.844 7.20964 15.4837 7.20964H14.7516ZM20.7285 16.1433C20.6656 16.0654 20.5762 16.014 20.4776 15.999C14.8705 15.1477 9.13083 15.1476 3.53109 15.99C3.43232 16.0049 3.34285 16.0563 3.27983 16.1342C3.05362 16.4138 2.52304 17.0804 2.70608 18.0936C2.81861 18.7174 3.19121 19.2673 3.72735 19.6018C8.85046 22.7988 15.1485 22.8 20.2736 19.6018C20.8097 19.2673 21.1823 18.7174 21.2948 18.0936C21.4764 17.0887 20.9527 16.4209 20.7285 16.1433Z" fill="white"/>
</svg>
