<svg width="24" height="19" viewBox="0 0 24 19" fill="none" xmlns="http://www.w3.org/2000/svg">
<path d="M12 18.833C10.1677 18.8329 8.37526 18.2984 6.8422 17.295C5.30914 16.2915 4.10208 14.8627 3.36889 13.1835C3.29157 12.9905 3.29244 12.775 3.3713 12.5826C3.45017 12.3902 3.60083 12.2361 3.79137 12.1529C3.98191 12.0697 4.19736 12.0639 4.39207 12.1369C4.58678 12.2098 4.74545 12.3556 4.83447 12.5435C5.55258 14.1897 6.81567 15.5384 8.41133 16.3628C10.007 17.1872 11.8379 17.4369 13.596 17.07C15.3542 16.7031 16.9323 15.742 18.0651 14.3482C19.1979 12.9545 19.8162 11.2132 19.8159 9.41717C19.8159 9.205 19.9002 9.00152 20.0502 8.8515C20.2003 8.70147 20.4037 8.61719 20.6159 8.61719C20.8281 8.61719 21.0316 8.70147 21.1816 8.8515C21.3316 9.00152 21.4159 9.205 21.4159 9.41717C21.4127 11.9134 20.4197 14.3065 18.6545 16.0717C16.8894 17.8368 14.4963 18.8298 12 18.833Z" fill="#FBCB0C"/>
<path d="M3.38395 10.2166C3.17178 10.2166 2.9683 10.1323 2.81827 9.98224C2.66824 9.83222 2.58396 9.62874 2.58396 9.41657C2.58398 7.25325 3.32886 5.1559 4.69337 3.47718C6.05788 1.79846 7.95879 0.640745 10.0765 0.198698C12.1942 -0.243348 14.3995 0.0572317 16.3216 1.0499C18.2438 2.04256 19.7655 3.66678 20.631 5.64944C20.7083 5.84244 20.7074 6.05796 20.6286 6.25034C20.5497 6.44272 20.399 6.59683 20.2085 6.68004C20.018 6.76324 19.8025 6.769 19.6078 6.69608C19.4131 6.62317 19.2544 6.47732 19.1654 6.28942C18.4466 4.64394 17.1833 3.29605 15.5878 2.4723C13.9923 1.64855 12.1618 1.39916 10.4041 1.76606C8.64635 2.13296 7.0685 3.09378 5.93575 4.48701C4.803 5.88025 4.18441 7.62096 4.18394 9.41657C4.18394 9.62874 4.09966 9.83222 3.94963 9.98224C3.7996 10.1323 3.59612 10.2166 3.38395 10.2166Z" fill="#FBCB0C"/>
<path d="M3.38477 10.2162C3.26057 10.2162 3.13808 10.1873 3.027 10.1318C2.91592 10.0762 2.81929 9.99559 2.74478 9.89624L0.160002 6.4499C0.032699 6.28017 -0.0219619 6.06681 0.00804359 5.85678C0.0380491 5.64674 0.150263 5.45722 0.32 5.32992C0.489737 5.20262 0.703092 5.14796 0.913131 5.17797C1.12317 5.20797 1.31269 5.32018 1.43999 5.48992L3.54477 8.29627L6.35034 6.19231C6.43438 6.12927 6.53002 6.08341 6.63179 6.05734C6.73356 6.03127 6.83947 6.02549 6.94347 6.04035C7.04747 6.05521 7.14753 6.0904 7.23793 6.14393C7.32832 6.19745 7.40729 6.26826 7.47033 6.3523C7.53336 6.43635 7.57922 6.53198 7.6053 6.63375C7.63137 6.73552 7.63714 6.84143 7.62229 6.94543C7.60743 7.04943 7.57223 7.14948 7.51871 7.23988C7.46518 7.33028 7.39437 7.40925 7.31033 7.47228L3.86396 10.0562C3.72587 10.1602 3.55765 10.2164 3.38477 10.2162Z" fill="#FBCB0C"/>
<path d="M23.2005 13.6635C23.0763 13.6635 22.9538 13.6346 22.8427 13.579C22.7316 13.5235 22.635 13.4429 22.5605 13.3435L20.4557 10.5372L17.6501 12.6411C17.4804 12.7684 17.267 12.8231 17.057 12.7931C16.8469 12.7631 16.6574 12.6509 16.5301 12.4811C16.4028 12.3114 16.3482 12.098 16.3782 11.888C16.4082 11.678 16.5204 11.4884 16.6901 11.3611L20.1365 8.77719C20.3062 8.64989 20.5196 8.59523 20.7296 8.62523C20.9397 8.65524 21.1292 8.76745 21.2565 8.93718L23.8404 12.3835C23.9296 12.5024 23.9839 12.6437 23.9972 12.7917C24.0106 12.9396 23.9824 13.0884 23.916 13.2213C23.8495 13.3542 23.7474 13.4659 23.621 13.544C23.4947 13.6221 23.349 13.6635 23.2005 13.6635Z" fill="#FBCB0C"/>
</svg>
